# xmcd CD database file
#
# Track frame offsets:
#	165
#	28987
#	45950
#	72717
#	90457
#	110735
#	138780
#	163480
#
# Disc length: 2439 seconds
#
# Revision: 3
# Processed by: cddbd v1.5PL3 Copyright (c) Steve Scherf et al.
# Submitted via: CDex 1.50
#
DISCID=70098508
DTITLE=FREE - Free Live!
DYEAR=1971
DGENRE=Hard Rock
TTITLE0=All Right Now (LIVE)
TTITLE1=I'm  A Mover (LIVE)
TTITLE2=Be My Friend (LIVE)
TTITLE3=Fire And Water (LIVE)
TTITLE4=Ride On Pony (LIVE)
TTITLE5=Mr. Big (LIVE)
TTITLE6=The Hunter (LIVE)
TTITLE7=Get Where I Belong (LIVE)
EXTD=YEAR: 1971
EXTT0=
EXTT1=
EXTT2=
EXTT3=
EXTT4=
EXTT5=
EXTT6=
EXTT7=
PLAYORDER=
